<?xml version="1.0" encoding="utf-8"?>
<!-- Generator: Adobe Illustrator 19.1.0, SVG Export Plug-In . SVG Version: 6.00 Build 0)  -->
<!DOCTYPE svg PUBLIC "-//W3C//DTD SVG 1.1//EN" "http://www.w3.org/Graphics/SVG/1.1/DTD/svg11.dtd">
<svg version="1.1" id="Layer_1" xmlns="http://www.w3.org/2000/svg" xmlns:xlink="http://www.w3.org/1999/xlink" x="0px" y="0px"
	 viewBox="0 0 50 50" enable-background="new 0 0 50 50" xml:space="preserve">
<circle fill="#F37821" cx="-652.7" cy="50.7" r="25"/>
<g>
	<path fill="#FFFFFF" d="M-659.3,64.3c0-1.1,0-2.2,0-3.3c-0.1,0-0.3,0-0.4,0c-2,0-3.9,0-5.9,0c-0.3,0-0.4-0.1-0.4-0.4
		c0-6.1,0-12.3,0-18.4c0-0.2,0-0.3,0.1-0.5c0.5-1.5,1-2.9,1.5-4.4c0.1-0.2,0.2-0.3,0.4-0.3c8.1,0,16.1,0,24.2,0c0.1,0,0.2,0,0.3,0
		c0,0.1,0,0.3,0,0.4c0,5.3,0,10.6,0,15.8c0,0.2-0.1,0.4-0.2,0.5c-2.3,2.3-4.7,4.7-7,7c-0.1,0.1-0.3,0.2-0.5,0.2c-1.5,0-2.9,0-4.4,0
		c-0.2,0-0.4,0.1-0.5,0.2c-1,1-1.9,1.9-2.9,2.9c-0.1,0.1-0.3,0.2-0.5,0.2c-1.2,0-2.3,0-3.5,0C-659.1,64.3-659.2,64.3-659.3,64.3z
		 M-656.1,60.2C-656,60.2-656,60.2-656.1,60.2c0.1,0,0.2-0.1,0.3-0.2c1-1,1.9-1.9,2.9-2.9c0.1-0.1,0.3-0.2,0.5-0.2c2,0,4,0,6,0
		c0.2,0,0.4-0.1,0.5-0.2c1.2-1.2,2.5-2.5,3.7-3.7c0.1-0.1,0.2-0.3,0.2-0.5c0-4.2,0-8.5,0-12.7c0-0.3-0.1-0.4-0.4-0.4
		c-6.4,0-12.8,0-19.3,0c-0.3,0-0.4,0.1-0.4,0.4c0,5.6,0,11.2,0,16.8c0,0.3,0.1,0.4,0.4,0.4c1.7,0,3.4,0,5.1,0c0.1,0,0.2,0,0.4,0
		C-656.1,58.1-656.1,59.1-656.1,60.2z"/>
	<path fill="#F37821" d="M-656.1,60.2c0-1.1,0-2.1,0-3.2c-0.1,0-0.3,0-0.4,0c-1.7,0-3.4,0-5.1,0c-0.3,0-0.4-0.1-0.4-0.4
		c0-5.6,0-11.2,0-16.8c0-0.3,0.1-0.4,0.4-0.4c6.4,0,12.8,0,19.3,0c0.3,0,0.4,0.1,0.4,0.4c0,4.2,0,8.5,0,12.7c0,0.2-0.1,0.4-0.2,0.5
		c-1.2,1.2-2.5,2.5-3.7,3.7c-0.2,0.2-0.3,0.2-0.5,0.2c-2,0-4,0-6,0c-0.2,0-0.4,0.1-0.5,0.2c-0.9,1-1.9,1.9-2.9,2.9
		C-655.8,60.1-655.9,60.2-656.1,60.2C-656,60.2-656,60.2-656.1,60.2z M-652.8,51.9c0-2.5,0-4.9,0-7.4c-0.8,0-1.6,0-2.4,0
		c0,2.5,0,4.9,0,7.4C-654.4,51.9-653.6,51.9-652.8,51.9z M-646.1,51.9c0-2.5,0-4.9,0-7.3c-0.8,0-1.6,0-2.4,0c0,2.5,0,4.9,0,7.3
		C-647.7,51.9-646.9,51.9-646.1,51.9z"/>
	<path fill="#FFFFFF" d="M-652.8,51.9c-0.8,0-1.6,0-2.4,0c0-2.5,0-4.9,0-7.4c0.8,0,1.6,0,2.4,0C-652.8,47-652.8,49.4-652.8,51.9z"/>
	<path fill="#FFFFFF" d="M-646.1,51.9c-0.8,0-1.6,0-2.4,0c0-2.4,0-4.9,0-7.3c0.8,0,1.6,0,2.4,0C-646.1,47-646.1,49.4-646.1,51.9z"/>
</g>
<g>
	<ellipse fill="#F37821" cx="25" cy="25" rx="25" ry="24.8"/>
	<path fill="#FFFFFF" d="M37.9,19.3c0.8-0.3,2.5-2.6,2.5-2.6l-2.8,0.7l1.9-3l-3.3,1.3c0,0-1.5-2.4-6.2-1.7s-4.1,7-4.1,7
		c-8-0.1-13-6.4-13-6.4c-1.6,5.9,2.1,8.6,2.1,8.6c-0.7,0.2-2.8-0.8-2.8-0.8c0.3,4.7,4.6,6.2,4.6,6.3s-2.5,0-2.5,0
		c1.2,3.4,5.4,4,5.4,4s-0.3,2.2-7.6,2.9c0.2,0,0.5,0.2,0.6,0.3c0.6,0.2,1.2,0.5,1.8,0.7c2,0.6,4,1,6.1,1.1c7,0.3,13.2-3.8,15.8-10.2
		c0.9-2.2,1.4-4.6,1.5-7L37.9,19.3z"/>
</g>
</svg>
