<?xml version="1.0" encoding="utf-8"?>
<!-- Generator: Adobe Illustrator 19.1.0, SVG Export Plug-In . SVG Version: 6.00 Build 0)  -->
<!DOCTYPE svg PUBLIC "-//W3C//DTD SVG 1.1//EN" "http://www.w3.org/Graphics/SVG/1.1/DTD/svg11.dtd">
<svg version="1.1" id="Layer_1" xmlns="http://www.w3.org/2000/svg" xmlns:xlink="http://www.w3.org/1999/xlink" x="0px" y="0px"
	 viewBox="0 0 90.4 90.4" enable-background="new 0 0 90.4 90.4" xml:space="preserve">
<circle fill="#F27721" cx="45.2" cy="45.2" r="44"/>
<g>
	<polygon fill="#FFFFFF" points="30.1,66.4 31.1,65.1 31.5,63.7 31.6,60.8 31.6,26 32.2,22.4 33.2,21.1 58.1,21 57.1,22.4 
		56.3,24.2 56.3,28.9 56.3,60.1 56.3,63.6 55.6,65.8 54.6,66.9 52,66.9 31.1,66.9 29.8,66.9 	"/>
	<g>
		<path fill="none" stroke="#FFFFFF" stroke-width="0.8777" stroke-miterlimit="10" d="M56.4,60.4c0-4.2,0-8.5,0-12.7
			c0-7.6-0.3-15.2-0.1-22.8c0.1-2,1.2-4.3,3.5-4c3.1,0.5,4.2,4.3,3.6,6.9c-0.1,0.4-0.2,0.8-0.5,1.1c-0.7,0.8-2,0.5-2.6-0.3
			c-0.8-1-0.3-2.1-0.3-3.2l-3.3,0"/>
		<line fill="none" stroke="#FFFFFF" stroke-width="0.8777" stroke-miterlimit="10" x1="56.5" y1="29.5" x2="61.7" y2="29.5"/>
		<path fill="none" stroke="#FFFFFF" stroke-width="0.8777" stroke-miterlimit="10" d="M60,21c-8.7,0-17.5,0-26.2,0
			c-0.2,0-0.4,0-0.6,0.1c-0.2,0.1-0.3,0.2-0.4,0.4c-1.5,2.2-1.4,4.9-1.3,7.3c0,3.1,0,6.2,0,9.2"/>
		<path fill="none" stroke="#FFFFFF" stroke-width="0.8777" stroke-miterlimit="10" d="M31.5,27.5c0,4.2,0,8.5,0,12.7
			c0,7.6,0.3,15.2,0.1,22.8c-0.1,2-1.2,4.3-3.5,4c-3.1-0.5-4.2-4.3-3.6-6.9c0.1-0.4,0.2-0.8,0.5-1.1c0.7-0.8,2-0.5,2.6,0.3
			c0.8,1,0.3,2.1,0.3,3.2l3.3,0"/>
		<line fill="none" stroke="#FFFFFF" stroke-width="0.8777" stroke-miterlimit="10" x1="31.4" y1="58.4" x2="26.2" y2="58.4"/>
		<path fill="none" stroke="#FFFFFF" stroke-width="0.8777" stroke-miterlimit="10" d="M28,67c8.7,0,17.5,0,26.2,0
			c0.2,0,0.4,0,0.6-0.1c0.2-0.1,0.3-0.2,0.4-0.4c1.5-2.2,1.4-4.9,1.3-7.3c0-3.1,0-6.2,0-9.2"/>
	</g>
	<line fill="none" stroke="#2F363B" stroke-miterlimit="10" x1="35.7" y1="34.3" x2="52.2" y2="34.3"/>
	<line fill="none" stroke="#2F363B" stroke-miterlimit="10" x1="35.7" y1="39.3" x2="52.2" y2="39.3"/>
	<line fill="none" stroke="#2F363B" stroke-miterlimit="10" x1="35.7" y1="44.2" x2="52.2" y2="44.2"/>
	<line fill="none" stroke="#2F363B" stroke-miterlimit="10" x1="35.7" y1="49.2" x2="52.2" y2="49.2"/>
	<line fill="none" stroke="#2F363B" stroke-miterlimit="10" x1="35.7" y1="54.1" x2="52.2" y2="54.1"/>
</g>
</svg>
