<?xml version="1.0" encoding="utf-8"?>
<!-- Generator: Adobe Illustrator 19.1.0, SVG Export Plug-In . SVG Version: 6.00 Build 0)  -->
<!DOCTYPE svg PUBLIC "-//W3C//DTD SVG 1.1//EN" "http://www.w3.org/Graphics/SVG/1.1/DTD/svg11.dtd">
<svg version="1.1" id="Layer_1" xmlns="http://www.w3.org/2000/svg" xmlns:xlink="http://www.w3.org/1999/xlink" x="0px" y="0px"
	 viewBox="0 0 50 50" enable-background="new 0 0 50 50" xml:space="preserve">
<ellipse fill="#F37721" cx="-99.2" cy="-116.5" rx="24" ry="23.8"/>
<path fill="#FFFFFF" d="M-87.5-107.3c1.4-1,1.9-3.3,2.1-4.8c0.3-2.1,0.1-4.2,0-6.3c-0.1-1.8-0.1-3.6-0.8-5.3
	c-0.9-1.9-2.6-2.4-4.6-2.4c-5.4,0-10.9,0.1-16.3,0c-1.5,0-3.2-0.2-4.4,1c-1,1-1.2,2.8-1.3,4.1c-0.4,3.5-0.5,7.4,0.3,10.8
	c0.8,3.4,3.4,3.2,3.4,3.2c6.6,0,13.3,0,19.9,0c0.3,0,0.6,0,0.9-0.1C-88-107-87.7-107.2-87.5-107.3z"/>
<path fill="#F37721" d="M-102.2-111.4c0-3.4,0-6.8,0-10.2c2.7,1.7,5.3,3.4,7.9,5.1C-96.9-114.7-99.5-113.1-102.2-111.4z"/>
<ellipse fill="#F37721" cx="25" cy="25" rx="24.7" ry="24.5"/>
<path fill="#FFFFFF" d="M34.6,38.7C20.4,44.4,19,33.8,19,33.8V23h-3.6v-5.1c0,0,5-0.5,6.6-8.3h3.9l-0.1,7.9l7.6,0.2l0.1,4.6H26
	l-0.2,8c0,0-0.8,8.2,8.7,3.6V38.7z"/>
</svg>
