<?xml version="1.0" encoding="utf-8"?>
<!-- Generator: Adobe Illustrator 19.1.0, SVG Export Plug-In . SVG Version: 6.00 Build 0)  -->
<!DOCTYPE svg PUBLIC "-//W3C//DTD SVG 1.1//EN" "http://www.w3.org/Graphics/SVG/1.1/DTD/svg11.dtd">
<svg version="1.1" id="Layer_1" xmlns="http://www.w3.org/2000/svg" xmlns:xlink="http://www.w3.org/1999/xlink" x="0px" y="0px"
	 viewBox="0 0 612 792" enable-background="new 0 0 612 792" xml:space="preserve">
<path fill="#0A142D" d="M528.4,250.4l0.6,0.3L425.7,17.4L348.4,150l-42.7-23.8l-40.2,22.3L187.1,17.4L82.4,250v0l-0.6,0.3
	L-0.6,378.7L305.7,777L612,378.7L528.4,250.4z M417,70.6l45.1,102l-11.3,31.8l-84.4-47.1L417,70.6z M195.3,70.7l51.3,85.7l-86,47.7
	l-11.2-31.7L195.3,70.7z M475.6,430.3l-28.8,81.3L424.5,542l-42,104.7l-77.4,65.4l-76.3-65.4L194.7,542l-16.2-20.8l-32.2-90.9
	l-7.1,40.5L56.9,365.2l57-9.4l-0.6,0.9l78.3,73.6L153,349.4l32.9-5.4l8.8-25.3l80-22.4l-37.8,77.9l-45.4-21.6v4.6l31.8,45.5
	l-10.8,22.6l55.2-30l16.5-118.6v0l20.9-60.9l0.3,0.1l0.7,0.3l20.9,60.5l16.6,118.6l55.2,30L388,402.5l31.9-45.6v-4.6L374.4,374
	l-37.8-77.8l79.8,22.5l8.1,25.3l29.7,4.9L420,420.7l70.2-66l64.3,10.5l-72.8,99.1L475.6,430.3z M232.7,378.7l-1.2,18.6l-25.7-31.5
	L232.7,378.7z M378.7,378.7l26.9-12.8l-25.7,31.5L378.7,378.7z"/>
<polygon fill="#FFFFFF" points="246.5,156.4 160.5,204.2 149.3,172.5 195.3,70.7 "/>
<polygon fill="#FFFFFF" points="462.1,172.6 450.8,204.4 366.5,157.3 417,70.6 "/>
<path fill="#FFFFFF" d="M490.7,354.7l-70.2,66l34.3-71.9l-29.7-4.9l-8.1-25.3l-79.8-22.5l37.8,77.8l45.6-21.7v4.6l-31.9,45.6
	l10.8,22.6l-55.2-30l-16.6-118.6L306.7,216l-0.7-0.3l-0.3-0.1l-20.9,60.9v0l-16.5,118.6l-55.2,30l10.8-22.6L192.1,357v-4.6
	l45.4,21.6l37.8-77.9l-80,22.4l-8.8,25.3l-32.9,5.4l38.6,80.9l-78.3-73.6l0.6-0.9l-57,9.4l82.3,105.5l7.1-40.5l32.2,90.9l16.2,20.8
	l34.1,104.7l76.3,65.4l77.4-65.4L425,542l22.3-30.3l28.8-81.3l6,34l72.8-99.1L490.7,354.7z M383.5,589.7L306,687.6l-76.3-97.9
	l-34.1-79.9l83.5,79.9l26.9-13.3l-40.9-66.6L306,500l42.1,9.8L306,576.4l26.8,13.3l84.5-79.9L383.5,589.7z"/>
<polygon fill="#FFFFFF" points="406,365.9 380.3,397.4 379.2,378.7 "/>
<polygon fill="#FFFFFF" points="233.2,378.7 232,397.4 206.3,365.9 "/>
<polygon fill="#0A142D" points="416.8,509.8 383,589.7 305.5,687.6 229.2,589.7 195.1,509.8 278.6,589.7 305.5,576.4 332.3,589.7 
	"/>
<polygon fill="#FFFFFF" points="305.6,659.7 280.1,632.9 277,604.5 290.9,632.9 305.6,634.4 320.1,632.9 335.4,604.5 330.9,632.9 
	"/>
<polygon fill="#0A142D" points="347.7,509.8 305.5,576.4 264.7,509.8 305.5,500 "/>
</svg>
